<?xml version="1.0" encoding="utf-8"?>
<!-- Generator: Adobe Illustrator 21.0.2, SVG Export Plug-In . SVG Version: 6.00 Build 0)  -->
<svg version="1.1" id="Capa_1" xmlns="http://www.w3.org/2000/svg" xmlns:xlink="http://www.w3.org/1999/xlink" x="0px" y="0px"
	 viewBox="0 0 1200 300" style="enable-background:new 0 0 1200 300;" xml:space="preserve">
<style type="text/css">
	.st0{fill:#FFFFFF;}
</style>
<g>
	<g>
		<path class="st0" d="M36.7,126.9v-21.5h16.1V73.1h29.9v32.3h18.8v21.5H82.7V188c0,4.7,0.6,7.7,1.8,8.9c1.2,1.2,4.9,1.8,11,1.8
			c0.9,0,1.9,0,2.9-0.1c1,0,2-0.1,3-0.2V221l-14.3,0.5c-14.3,0.5-24.1-2-29.3-7.4c-3.4-3.5-5.1-8.8-5.1-16v-71.2H36.7z"/>
		<path class="st0" d="M151.1,104.3V174c0,6.6,0.8,11.5,2.3,14.9c2.7,5.9,8.1,8.8,16.2,8.8c10.3,0,17.3-4.2,21.1-12.5
			c2-4.5,3-10.5,3-17.9v-62.9h30.7V220h-29.4v-16.3c-0.3,0.4-1,1.4-2.1,3.2c-1.1,1.8-2.5,3.3-4,4.7c-4.7,4.2-9.3,7.1-13.7,8.7
			c-4.4,1.6-9.6,2.3-15.5,2.3c-17.1,0-28.6-6.2-34.5-18.5c-3.3-6.8-5-16.8-5-30v-69.7H151.1z"/>
	</g>
	<g>
		<path class="st0" d="M287.4,111c7.6,6.3,11.4,16.6,11.4,31.1V220h-31v-70.3c0-6.1-0.8-10.8-2.4-14c-3-5.9-8.6-8.9-16.9-8.9
			c-10.2,0-17.2,4.4-21,13.1c-2,4.6-2.9,10.5-2.9,17.6V220h-30.2V104.5h29.3v16.9c3.9-5.9,7.5-10.2,11-12.8c6.2-4.7,14.1-7,23.6-7
			C270.1,101.6,279.8,104.7,287.4,111z"/>
		<path class="st0" d="M358,90.5h-30.7V62.6H358V90.5z M327.3,104.3H358V220h-30.7V104.3z"/>
	</g>
	<g>
		<path class="st0" d="M372.8,107.4h14.1l36.5,96.5l36.5-96.5H474L430.4,220h-14.6L372.8,107.4z"/>
		<path class="st0" d="M497.3,166.7c0,6.1,0.8,11.8,2.4,17.3c1.6,5.4,3.9,10.1,7.1,14.1c3.1,4,7.1,7.2,11.8,9.6
			c4.8,2.4,10.3,3.6,16.5,3.6c8.5,0,15.9-2.2,21.9-6.7c6.1-4.5,10.1-10.9,12.2-19.1h14.6c-1.6,5.4-3.7,10.3-6.3,14.9
			c-2.6,4.6-5.9,8.5-9.8,12c-3.9,3.4-8.5,6-13.9,7.9c-5.4,1.9-11.6,2.8-18.7,2.8c-9,0-16.7-1.5-23.3-4.6c-6.5-3-11.9-7.2-16.1-12.5
			c-4.2-5.3-7.3-11.5-9.3-18.7c-2-7.2-3-14.9-3-23.1s1.2-16,3.6-23.3c2.4-7.2,5.8-13.6,10.2-19c4.4-5.4,9.8-9.7,16.2-12.8
			c6.4-3.1,13.6-4.7,21.7-4.7c15.5,0,27.7,5.3,36.5,16c8.8,10.6,13.2,26.1,13,46.4H497.3z M570.7,155.9c0-5.5-0.8-10.7-2.3-15.5
			c-1.5-4.9-3.8-9.1-6.7-12.6c-3-3.5-6.7-6.4-11.2-8.5c-4.5-2.1-9.6-3.2-15.4-3.2c-5.8,0-10.9,1.1-15.3,3.3
			c-4.4,2.2-8.2,5.1-11.3,8.7c-3.1,3.6-5.6,7.8-7.5,12.6c-1.9,4.8-3.1,9.9-3.7,15.2H570.7z"/>
		<path class="st0" d="M619.6,220h-13V107.4h13v21.1h0.4c3.6-9,8.3-15.2,14-18.8c5.7-3.5,13.3-5.3,22.7-5.3v14.1
			c-7.4-0.1-13.5,1-18.3,3.5c-4.8,2.5-8.6,5.8-11.4,10c-2.8,4.2-4.8,9.2-5.9,14.9c-1.1,5.7-1.6,11.7-1.6,17.9V220z"/>
		<path class="st0" d="M681.8,184.8c2,9.7,5.7,16.6,11,20.5c5.3,4,12.9,6,22.7,6c4.8,0,8.9-0.6,12.4-1.7c3.5-1.2,6.3-2.7,8.6-4.7
			c2.2-2,3.9-4.2,5.1-6.6c1.2-2.5,1.7-5.1,1.7-7.8c0-5.5-1.8-9.6-5.3-12.3c-3.6-2.7-8-4.8-13.4-6.3c-5.4-1.5-11.2-2.8-17.4-3.9
			c-6.2-1.1-12-2.7-17.4-4.9c-5.4-2.2-9.8-5.3-13.4-9.3c-3.6-4.1-5.3-9.8-5.3-17.2c0-9.4,3.4-17.1,10.3-23.1c6.9-6,16.6-9,29.2-9
			c12.2,0,22.1,2.7,29.7,8.1c7.6,5.4,12.2,14.5,13.8,27.3h-13.3c-1.2-8.7-4.5-14.8-9.9-18.4c-5.4-3.5-12.3-5.3-20.5-5.3
			s-14.6,1.8-18.9,5.3c-4.3,3.6-6.5,8.2-6.5,14c0,5.1,1.8,8.9,5.3,11.6c3.5,2.7,8,4.9,13.4,6.5c5.4,1.7,11.2,3.2,17.4,4.5
			c6.2,1.3,12,3.2,17.4,5.5c5.4,2.4,9.8,5.6,13.4,9.7c3.5,4.1,5.3,9.7,5.3,16.9c0,5.4-1.2,10.1-3.5,14.2c-2.3,4.1-5.5,7.6-9.6,10.3
			c-4.1,2.8-8.9,4.8-14.5,6.2c-5.6,1.4-11.7,2.1-18.4,2.1c-6.7,0-12.6-1-17.7-2.9c-5.1-2-9.5-4.7-13.1-8.1
			c-3.6-3.5-6.4-7.5-8.5-12.2c-2-4.6-3.2-9.6-3.5-15H681.8z"/>
		<path class="st0" d="M780,82.9V63.5h14.3v19.3H780z M780.7,220V107.4h13V220H780.7z"/>
		<path class="st0" d="M909.7,63.5h13V220h-13v-19.8h-0.4c-1.9,3.8-4.3,7.1-7.3,9.9c-3,2.8-6.2,5.2-9.8,7.1c-3.6,1.9-7.2,3.3-11,4.3
			c-3.8,1-7.5,1.5-11.1,1.5c-9.1,0-16.9-1.5-23.3-4.6c-6.4-3-11.6-7.2-15.8-12.5c-4.1-5.3-7.1-11.6-9-18.8c-1.9-7.2-2.8-15-2.8-23.3
			c0-7.8,1-15.4,3-22.6c2-7.2,5.1-13.6,9.2-19c4.1-5.4,9.3-9.8,15.6-13s13.7-4.9,22.3-4.9c8,0,15.6,1.8,22.9,5.3
			c7.3,3.6,13.1,8.8,17.3,15.8V63.5z M909.7,163.3c0-6.4-0.9-12.4-2.6-18.1c-1.7-5.7-4.2-10.7-7.5-15c-3.3-4.3-7.2-7.7-12-10.2
			c-4.7-2.5-10-3.8-16-3.8c-6.8,0-12.7,1.3-17.6,4c-4.9,2.7-9,6.3-12.2,11c-3.2,4.6-5.5,10-7,16.2c-1.4,6.2-2,12.8-1.7,19.9
			c0,7.1,1,13.4,2.9,18.8c2,5.4,4.7,10,8.1,13.8c3.5,3.8,7.5,6.6,12.2,8.6c4.6,2,9.7,2.9,15.2,2.9c6.1,0,11.5-1.2,16.3-3.7
			c4.8-2.5,8.8-5.8,12-10.1c3.2-4.3,5.6-9.3,7.3-15.2C908.9,176.4,909.7,170.1,909.7,163.3z"/>
		<path class="st0" d="M1003.2,154.4c2.5-0.3,5.4-0.7,8.8-1.3c3.4-0.6,6.2-1.4,8.4-2.4c2.2-1,3.5-2.7,4-5.1c0.5-2.4,0.8-4.6,0.8-6.6
			c0-6.7-2.1-12.1-6.4-16.4c-4.3-4.3-11.5-6.4-21.6-6.4c-4.5,0-8.6,0.4-12.4,1.2c-3.8,0.8-7.1,2.2-9.9,4.1s-5.1,4.6-7,7.8
			c-1.8,3.3-3,7.4-3.6,12.3H951c0.4-6.7,2-12.3,4.6-17.1c2.6-4.7,6-8.5,10.1-11.5c4.1-3,8.9-5.1,14.3-6.5c5.4-1.4,11.2-2.1,17.3-2.1
			c5.6,0,11,0.6,16,1.8c5,1.2,9.3,3.2,13,5.9c3.7,2.7,6.6,6.3,8.7,10.8c2.1,4.5,3.2,10,3.2,16.5v61.3c0,5.1,0.9,8.3,2.7,9.7
			c1.8,1.4,5.5,1.1,11-1v10.2c-1,0.3-2.5,0.7-4.5,1.3c-2,0.6-3.9,0.9-5.8,0.9c-2,0-4-0.2-5.9-0.7c-2.2-0.3-3.9-1-5.2-2.1
			c-1.3-1.1-2.4-2.4-3.2-3.9c-0.8-1.5-1.3-3.2-1.6-5c-0.3-1.8-0.4-3.7-0.4-5.8c-5.5,6.1-11.8,10.7-18.9,13.9
			c-7.1,3.2-14.8,4.8-23,4.8c-4.9,0-9.7-0.7-14.2-2c-4.6-1.3-8.6-3.3-12.1-6.1c-3.5-2.8-6.2-6.1-8.3-10.1c-2-4-3-8.7-3-14.2
			c0-19.1,13.1-30.4,39.3-33.9L1003.2,154.4z M1025.1,160.9c-5.5,2.3-11.1,3.8-16.7,4.6c-5.6,0.7-11.3,1.3-16.9,1.7
			c-10,0.7-17.8,3-23.4,6.7c-5.6,3.8-8.4,9.5-8.4,17.2c0,3.5,0.7,6.5,2.1,9c1.4,2.5,3.2,4.6,5.4,6.3c2.2,1.7,4.9,2.9,7.8,3.7
			c3,0.8,6,1.2,9,1.2c5.2,0,10.3-0.7,15.2-2c4.9-1.3,9.3-3.3,13.1-6c3.8-2.7,6.9-6.1,9.2-10.2c2.3-4.1,3.5-9,3.5-14.7V160.9z"/>
		<path class="st0" d="M1155.1,63.5h13V220h-13v-19.8h-0.4c-1.9,3.8-4.3,7.1-7.3,9.9c-3,2.8-6.2,5.2-9.8,7.1
			c-3.6,1.9-7.2,3.3-11,4.3c-3.8,1-7.5,1.5-11.1,1.5c-9.1,0-16.9-1.5-23.3-4.6c-6.4-3-11.6-7.2-15.8-12.5c-4.1-5.3-7.1-11.6-9-18.8
			c-1.9-7.2-2.8-15-2.8-23.3c0-7.8,1-15.4,3-22.6c2-7.2,5.1-13.6,9.2-19c4.1-5.4,9.3-9.8,15.6-13s13.7-4.9,22.3-4.9
			c8,0,15.6,1.8,22.9,5.3c7.3,3.6,13.1,8.8,17.3,15.8V63.5z M1155.1,163.3c0-6.4-0.9-12.4-2.6-18.1c-1.7-5.7-4.2-10.7-7.5-15
			c-3.3-4.3-7.2-7.7-12-10.2c-4.7-2.5-10-3.8-16-3.8c-6.8,0-12.7,1.3-17.6,4c-4.9,2.7-9,6.3-12.2,11c-3.2,4.6-5.5,10-7,16.2
			c-1.4,6.2-2,12.8-1.7,19.9c0,7.1,1,13.4,2.9,18.8c2,5.4,4.7,10,8.1,13.8c3.5,3.8,7.5,6.6,12.2,8.6c4.6,2,9.7,2.9,15.2,2.9
			c6.1,0,11.5-1.2,16.3-3.7c4.8-2.5,8.8-5.8,12-10.1c3.2-4.3,5.6-9.3,7.3-15.2C1154.2,176.4,1155.1,170.1,1155.1,163.3z"/>
	</g>
</g>
</svg>
