<?xml version="1.0" encoding="utf-8"?>
<!-- Generator: Adobe Illustrator 21.0.0, SVG Export Plug-In . SVG Version: 6.00 Build 0)  -->
<svg version="1.1" id="Layer_1" xmlns="http://www.w3.org/2000/svg" xmlns:xlink="http://www.w3.org/1999/xlink" x="0px" y="0px"
	 viewBox="0 0 800 100" style="enable-background:new 0 0 800 100;" xml:space="preserve">
<g>
	<path d="M68.1,13.8c5.5,0,10.8,0,16.4,0c0,0.7,0,1.3,0,1.9c0,14.7,0,29.3,0.1,44c0,2.1,0.4,4.3,1.2,6.2c1.6,4.2,5.1,6.1,9.4,6.5
		c2,0.2,4.1,0.1,6-0.4c5.6-1.3,8.5-5.6,8.5-12.4c0-14.6,0-29.2,0-43.9c0-0.7,0-1.3,0-2c5.6,0,10.9,0,16.5,0c0,0.7,0,1.3,0,1.9
		c0,14.6,0,29.2,0,43.9c0,12.3-6.7,21.3-18.7,24.3c-8.8,2.3-17.5,2-25.8-1.9c-8.8-4.2-13.4-11.4-13.5-21.2c-0.2-15.3,0-30.6,0-45.9
		C68.1,14.6,68.1,14.3,68.1,13.8z"/>
	<path d="M149.1,84.1c-3.4,0-6.4,0-9.6,0c0-23.5,0-46.9,0-70.6c1.7,0,3.5,0.2,5.2,0c3.3-0.5,5,0.9,6.7,3.7
		c10.1,16.3,20.4,32.4,30.6,48.6c0.3,0.5,0.6,0.9,1.2,1.7c0-18.2,0-36,0-53.8c3.3,0,6.4,0,9.6,0c0,23.5,0,46.9,0,70.5
		c-3.1,0-6.1,0.1-9.1-0.1c-0.5,0-1-0.8-1.3-1.3c-8.9-14.2-17.9-28.3-26.8-42.5c-2.1-3.3-4.1-6.5-6.4-9.7
		C149.1,48.4,149.1,66.2,149.1,84.1z"/>
	<path d="M392.2,49.6c7.6,2.5,10.3,8.3,10.6,15.6c0.1,3.9,0.1,7.7,0.4,11.6c0.1,2.1,0.9,4,2.4,5.7c0.3,0.4,0.4,1,0.7,1.7
		c-3.4,0-6.5,0-9.7,0c-0.5,0-1.2-0.6-1.4-1c-0.7-1.8-1.5-3.7-1.7-5.6c-0.3-3.6-0.3-7.3-0.3-10.9c0-3-0.6-5.9-2.5-8.4
		c-2.2-2.9-5.2-4.4-8.7-4.5c-5.6-0.1-11.2,0-16.8,0c-0.1,0-0.3,0.1-0.6,0.1c0,10,0,20.1,0,30.3c-3.2,0-6.3,0-9.6,0
		c0-23.4,0-46.8,0-70.3c0.2,0,0.5-0.2,0.8-0.2c8.8,0,17.6,0,26.5,0.1c3.8,0.1,7.4,0.9,10.9,2.6c6.8,3.4,10.4,10.3,9.7,18.6
		c-0.5,6.4-3.8,10.8-9.2,13.8c-0.4,0.2-0.8,0.4-1.2,0.7C392.5,49.4,392.4,49.4,392.2,49.6z M364.7,45.9c5.8,0,11.5,0.4,17.2-0.1
		c7.7-0.7,10.8-3.9,11.5-10.7c0.7-6.9-2.7-12-9.2-13.4c-1.5-0.3-3.1-0.4-4.7-0.5c-4.4-0.1-8.9,0-13.3,0c-0.5,0-1,0.1-1.5,0.1
		C364.7,29.5,364.7,37.6,364.7,45.9z"/>
	<path d="M506.7,84.2c0-23.6,0-46.9,0-70.4c0.3-0.1,0.7-0.2,1.1-0.2c8,0,16-0.2,24,0.1c15.9,0.6,27.6,12.8,27.8,28.7
		c0.1,5.5,0.2,11.1-0.3,16.6c-1.2,13.1-11.9,23.8-25,24.8c-7.2,0.6-14.5,0.3-21.7,0.4C510.5,84.2,508.7,84.2,506.7,84.2z
		 M516.4,76.7c4.4,0,8.5,0,12.7,0c9.8,0,17.4-5.5,19.8-15c2-8.3,2-16.8,0.1-25.1c-1.8-7.8-6.8-13.5-15-14.8
		c-5.7-0.9-11.6-0.6-17.5-0.8C516.4,39.7,516.4,58.1,516.4,76.7z"/>
	<path d="M635.8,84.2c0-23.6,0-47,0-70.5c0.4-0.1,0.7-0.1,1-0.1c8,0,16.1-0.2,24.1,0.2c15.8,0.6,27.5,12.8,27.7,28.6
		c0.1,5.5,0.2,11.1-0.3,16.6c-1.2,13.2-11.9,23.8-25.1,24.9c-6.7,0.6-13.5,0.3-20.2,0.4C640.7,84.2,638.3,84.2,635.8,84.2z
		 M645.4,76.7c4.3,0,8.5,0,12.7,0c10.3,0,18.1-6.1,20.1-16.2c1.5-7.4,1.4-14.9,0.2-22.3c-1.6-9.8-8.6-16.2-17.7-16.9
		c-5-0.4-10-0.1-15-0.1c-0.1,0-0.2,0.1-0.3,0.2C645.4,39.8,645.4,58.1,645.4,76.7z"/>
	<path d="M26.7,26.4c-6.3,0-12.2,0-18.2,0c0-4.2,0-8.3,0-12.5c17.7,0,35.3,0,53,0c0,4.1,0,8.2,0,12.5c-6.1,0-12.1,0-18.4,0
		c0,19.4,0,38.5,0,57.8c-5.5,0-10.9,0-16.5,0C26.7,64.9,26.7,45.8,26.7,26.4z"/>
	<path d="M464.8,33.9c-3.2,0-6.1,0-9.2,0c-0.1-0.7-0.1-1.3-0.2-2c-1.2-7.6-7.7-12.4-15.9-11.8c-4.1,0.3-7.8,1.3-10.5,4.7
		c-3.7,4.9-2.7,11.4,2.2,14.9c3.6,2.6,7.7,3.8,11.9,5c5,1.4,9.8,3.1,14.1,6.2c7.5,5.5,10.2,14.9,6.4,22.9c-2.6,5.4-7.2,8.6-12.8,10
		c-11,2.9-21.3,1.7-30.1-6.1c-4.1-3.6-5.7-8.3-5.5-13.8c3.1,0,6.1,0,9.1,0c0.2,1.1,0.3,2.3,0.6,3.4c0.9,4,3.7,6.6,7.2,8.3
		c5.3,2.6,10.9,2.8,16.4,0.7c3.8-1.4,6.3-4.1,6.9-8.2c0.6-4.4-0.8-8-4.4-10.7c-3.3-2.4-7.2-3.6-11-4.6c-5.4-1.4-10.6-3.4-15.3-6.6
		c-10.3-7.2-10-22.3,0.6-29.4c4.9-3.3,10.3-4.4,16.1-4.3c7.5,0.2,14,2.4,19,8.4C463.4,24.6,465,28.9,464.8,33.9z"/>
	<path d="M625.5,84.2c-3.3,0-6.5,0-9.8,0c-1.4-4-2.8-8.1-4.2-12.2c-0.6-1.7-1.1-3.4-1.7-5c-0.2-0.4-0.8-0.9-1.2-0.9
		c-8.5-0.1-17,0-25.6,0c-1.8,5.2-3.6,10.3-5.3,15.4c-1,2.8-0.9,2.8-3.9,2.8c-2.1,0-4.2,0-6.3,0c-0.1,0-0.2,0-0.5-0.1
		c0.2-0.5,0.3-1.1,0.5-1.6c8.1-22.6,16.3-45.1,24.4-67.7c0.4-1,0.8-1.4,1.9-1.4c1.8,0.1,3.7,0.1,5.5,0c1.1-0.1,1.6,0.3,1.9,1.3
		c5.2,14.9,10.5,29.8,15.7,44.7c2.8,7.8,5.5,15.6,8.3,23.4C625.3,83.3,625.3,83.7,625.5,84.2z M596.6,27.9c-0.1,0-0.2,0-0.3,0
		c-3.4,9.9-6.9,19.9-10.4,29.9c7,0,13.9,0,20.9,0C603.3,47.8,600,37.9,596.6,27.9z"/>
	<path d="M300.2,84.1c0-23.5,0-46.9,0-70.5c14.3,0,28.5,0,42.8,0c0,2.4,0,4.9,0,7.5c-11,0-22.1,0-33.2,0c0,7.7,0,15.2,0,22.8
		c9.6,0,19.1,0,28.8,0c0,2.6,0,5,0,7.6c-9.6,0-19.1,0-28.8,0c0,8.4,0,16.7,0,25.1c11.1,0,22.3,0,33.7,0c0,2.6,0,5,0,7.5
		C329.1,84.1,314.7,84.1,300.2,84.1z"/>
	<path d="M230.3,13.6c3.5,0,6.7,0,10,0.1c0.3,0,0.8,0.7,0.9,1.2c4.5,12.8,9,25.7,13.5,38.5c2,5.8,3.8,11.6,5.7,17.4
		c0.1,0.2,0.2,0.4,0.3,0.7c1-3.3,2-6.4,3.1-9.5c5.4-15.7,10.9-31.3,16.4-46.9c0.3-1,0.8-1.4,1.9-1.4c2.9,0.1,5.8,0,9,0
		c-0.2,0.6-0.3,1-0.4,1.4c-8.4,22.7-16.8,45.3-25.3,68c-0.3,0.9-0.7,1.3-1.8,1.3c-1.9-0.1-3.8-0.1-5.6,0c-1.2,0.1-1.6-0.5-2-1.5
		c-6.8-18.3-13.6-36.5-20.3-54.8C233.9,23.3,232.1,18.6,230.3,13.6z"/>
	<path d="M712.9,13.2c0,23.6,0,47.2,0,70.8c-4.5,0-9,0-13.6,0c0-23.6,0-47.1,0-70.8C703.8,13.2,708.3,13.2,712.9,13.2z"/>
	<path d="M753.7,16.6c0,22.5,0,45,0,67.6c-4.4,0-8.8,0-13.3,0c0-22.5,0-45,0-67.6C744.9,16.6,749.3,16.6,753.7,16.6z"/>
	<path d="M758.8,27c4.5-1.2,8.8-2.3,13.3-3.4c6,19,11.9,37.8,17.9,56.9c-4.4,1.2-8.7,2.3-13.3,3.5C770.8,65.1,764.8,46.2,758.8,27z"
		/>
	<path d="M733.4,84.1c-4.5,0-8.8,0-13.3,0c0-19.2,0-38.3,0-57.5c4.5,0,8.8,0,13.3,0C733.4,45.7,733.4,64.9,733.4,84.1z"/>
	<path d="M479.8,84.1c0-23.5,0-46.9,0-70.4c3.2,0,6.3,0,9.6,0c0,23.5,0,46.9,0,70.4C486.1,84.1,483,84.1,479.8,84.1z"/>
	<path d="M219.8,84.1c-3.3,0-6.4,0-9.6,0c0-23.5,0-46.9,0-70.5c3.2,0,6.3,0,9.6,0C219.8,37.2,219.8,60.6,219.8,84.1z"/>
</g>
</svg>
